<mxfile host="Electron" agent="Mozilla/5.0 (Windows NT 10.0; Win64; x64) AppleWebKit/537.36 (KHTML, like Gecko) draw.io/26.2.15 Chrome/134.0.6998.205 Electron/35.2.1 Safari/537.36" version="26.2.15">
  <diagram name="Page-1" id="KkJ6cqhotYUCz3GdVWr_">
    <mxGraphModel dx="1310" dy="873" grid="1" gridSize="10" guides="1" tooltips="1" connect="1" arrows="1" fold="1" page="1" pageScale="1" pageWidth="850" pageHeight="1100" math="0" shadow="0">
      <root>
        <mxCell id="0" />
        <mxCell id="1" parent="0" />
        <mxCell id="gmT84jEC6gGRV9Um8jLX-25" style="edgeStyle=orthogonalEdgeStyle;rounded=0;orthogonalLoop=1;jettySize=auto;html=1;exitX=0.5;exitY=1;exitDx=0;exitDy=0;entryX=0.5;entryY=0;entryDx=0;entryDy=0;" edge="1" parent="1" source="gmT84jEC6gGRV9Um8jLX-1" target="gmT84jEC6gGRV9Um8jLX-2">
          <mxGeometry relative="1" as="geometry" />
        </mxCell>
        <mxCell id="gmT84jEC6gGRV9Um8jLX-1" value="INPUT_KENDARAAN" style="rounded=1;whiteSpace=wrap;html=1;" vertex="1" parent="1">
          <mxGeometry x="340" y="110" width="150" height="30" as="geometry" />
        </mxCell>
        <mxCell id="gmT84jEC6gGRV9Um8jLX-24" style="edgeStyle=orthogonalEdgeStyle;rounded=0;orthogonalLoop=1;jettySize=auto;html=1;entryX=0.5;entryY=0;entryDx=0;entryDy=0;" edge="1" parent="1" source="gmT84jEC6gGRV9Um8jLX-2" target="gmT84jEC6gGRV9Um8jLX-3">
          <mxGeometry relative="1" as="geometry" />
        </mxCell>
        <mxCell id="gmT84jEC6gGRV9Um8jLX-2" value="input(reg_num)&lt;div&gt;input(gol -&amp;nbsp; 1)&lt;/div&gt;" style="shape=parallelogram;perimeter=parallelogramPerimeter;whiteSpace=wrap;html=1;fixedSize=1;" vertex="1" parent="1">
          <mxGeometry x="350" y="170" width="130" height="60" as="geometry" />
        </mxCell>
        <mxCell id="gmT84jEC6gGRV9Um8jLX-6" style="edgeStyle=orthogonalEdgeStyle;rounded=0;orthogonalLoop=1;jettySize=auto;html=1;exitX=1;exitY=0.5;exitDx=0;exitDy=0;entryX=0;entryY=0.5;entryDx=0;entryDy=0;" edge="1" parent="1" source="gmT84jEC6gGRV9Um8jLX-3" target="gmT84jEC6gGRV9Um8jLX-4">
          <mxGeometry relative="1" as="geometry" />
        </mxCell>
        <mxCell id="gmT84jEC6gGRV9Um8jLX-16" style="edgeStyle=orthogonalEdgeStyle;rounded=0;orthogonalLoop=1;jettySize=auto;html=1;exitX=0.5;exitY=1;exitDx=0;exitDy=0;entryX=0.5;entryY=0;entryDx=0;entryDy=0;" edge="1" parent="1" source="gmT84jEC6gGRV9Um8jLX-3" target="gmT84jEC6gGRV9Um8jLX-9">
          <mxGeometry relative="1" as="geometry" />
        </mxCell>
        <mxCell id="gmT84jEC6gGRV9Um8jLX-3" value="gol &amp;gt; 5&lt;div&gt;or&lt;/div&gt;&lt;div&gt;gol &amp;lt; 0&lt;/div&gt;" style="rhombus;whiteSpace=wrap;html=1;" vertex="1" parent="1">
          <mxGeometry x="367.5" y="260" width="95" height="90" as="geometry" />
        </mxCell>
        <mxCell id="gmT84jEC6gGRV9Um8jLX-7" style="edgeStyle=orthogonalEdgeStyle;rounded=0;orthogonalLoop=1;jettySize=auto;html=1;exitX=0.5;exitY=1;exitDx=0;exitDy=0;entryX=0.5;entryY=0;entryDx=0;entryDy=0;" edge="1" parent="1" source="gmT84jEC6gGRV9Um8jLX-4" target="gmT84jEC6gGRV9Um8jLX-5">
          <mxGeometry relative="1" as="geometry" />
        </mxCell>
        <mxCell id="gmT84jEC6gGRV9Um8jLX-4" value="output(INVALID)" style="shape=parallelogram;perimeter=parallelogramPerimeter;whiteSpace=wrap;html=1;fixedSize=1;" vertex="1" parent="1">
          <mxGeometry x="540" y="282.5" width="130" height="45" as="geometry" />
        </mxCell>
        <mxCell id="gmT84jEC6gGRV9Um8jLX-5" value="panggilPetugas&amp;nbsp;← True" style="rounded=0;whiteSpace=wrap;html=1;" vertex="1" parent="1">
          <mxGeometry x="527.5" y="370" width="155" height="40" as="geometry" />
        </mxCell>
        <mxCell id="gmT84jEC6gGRV9Um8jLX-17" style="edgeStyle=orthogonalEdgeStyle;rounded=0;orthogonalLoop=1;jettySize=auto;html=1;exitX=0.5;exitY=1;exitDx=0;exitDy=0;entryX=0.5;entryY=0;entryDx=0;entryDy=0;" edge="1" parent="1" source="gmT84jEC6gGRV9Um8jLX-9" target="gmT84jEC6gGRV9Um8jLX-10">
          <mxGeometry relative="1" as="geometry" />
        </mxCell>
        <mxCell id="gmT84jEC6gGRV9Um8jLX-9" value="basePrice&amp;nbsp;← STATUS_INVALID" style="rounded=0;whiteSpace=wrap;html=1;" vertex="1" parent="1">
          <mxGeometry x="355" y="380" width="120" height="60" as="geometry" />
        </mxCell>
        <mxCell id="gmT84jEC6gGRV9Um8jLX-19" style="edgeStyle=orthogonalEdgeStyle;rounded=0;orthogonalLoop=1;jettySize=auto;html=1;exitX=0.5;exitY=1;exitDx=0;exitDy=0;entryX=0.5;entryY=0;entryDx=0;entryDy=0;" edge="1" parent="1" source="gmT84jEC6gGRV9Um8jLX-10" target="gmT84jEC6gGRV9Um8jLX-13">
          <mxGeometry relative="1" as="geometry" />
        </mxCell>
        <mxCell id="gmT84jEC6gGRV9Um8jLX-28" value="T" style="edgeLabel;html=1;align=center;verticalAlign=middle;resizable=0;points=[];" vertex="1" connectable="0" parent="gmT84jEC6gGRV9Um8jLX-19">
          <mxGeometry x="-0.137" y="-2" relative="1" as="geometry">
            <mxPoint x="12" as="offset" />
          </mxGeometry>
        </mxCell>
        <mxCell id="gmT84jEC6gGRV9Um8jLX-10" value="basePrice = STATUS_INVALID" style="rhombus;whiteSpace=wrap;html=1;" vertex="1" parent="1">
          <mxGeometry x="352.5" y="475" width="125" height="130" as="geometry" />
        </mxCell>
        <mxCell id="gmT84jEC6gGRV9Um8jLX-20" style="edgeStyle=orthogonalEdgeStyle;rounded=0;orthogonalLoop=1;jettySize=auto;html=1;exitX=0.5;exitY=1;exitDx=0;exitDy=0;entryX=0.5;entryY=0;entryDx=0;entryDy=0;" edge="1" parent="1" source="gmT84jEC6gGRV9Um8jLX-13" target="gmT84jEC6gGRV9Um8jLX-11">
          <mxGeometry relative="1" as="geometry" />
        </mxCell>
        <mxCell id="gmT84jEC6gGRV9Um8jLX-13" value="input(weight)&lt;div&gt;input(height)&lt;/div&gt;" style="shape=parallelogram;perimeter=parallelogramPerimeter;whiteSpace=wrap;html=1;fixedSize=1;" vertex="1" parent="1">
          <mxGeometry x="347.5" y="630" width="135" height="50" as="geometry" />
        </mxCell>
        <mxCell id="gmT84jEC6gGRV9Um8jLX-15" value="" style="group" vertex="1" connectable="0" parent="1">
          <mxGeometry x="220" y="730" width="390" height="130" as="geometry" />
        </mxCell>
        <mxCell id="gmT84jEC6gGRV9Um8jLX-11" value="basePrice&amp;nbsp;←&amp;nbsp;" style="rounded=0;whiteSpace=wrap;html=1;align=left;spacingLeft=6;" vertex="1" parent="gmT84jEC6gGRV9Um8jLX-15">
          <mxGeometry width="390" height="130" as="geometry" />
        </mxCell>
        <mxCell id="gmT84jEC6gGRV9Um8jLX-14" value="basePrice_calculator(&lt;div&gt;&lt;span style=&quot;white-space: pre;&quot;&gt;&#x9;&lt;/span&gt;vehicle_tariff_km[gol],&lt;/div&gt;&lt;div&gt;&lt;span style=&quot;white-space: pre;&quot;&gt;&#x9;&lt;/span&gt;weight,&lt;/div&gt;&lt;div&gt;&lt;span style=&quot;white-space: pre;&quot;&gt;&#x9;&lt;/span&gt;height,&lt;/div&gt;&lt;div&gt;&lt;span style=&quot;white-space: pre;&quot;&gt;&#x9;&lt;/span&gt;vehicle_maxWeight[gol],&lt;/div&gt;&lt;div&gt;&lt;span style=&quot;white-space: pre;&quot;&gt;&#x9;&lt;/span&gt;vehicle_maxHeight[gol]&lt;/div&gt;&lt;div style=&quot;&quot;&gt;)&lt;/div&gt;" style="shape=process;whiteSpace=wrap;html=1;backgroundOutline=1;align=left;spacingLeft=12;" vertex="1" parent="gmT84jEC6gGRV9Um8jLX-15">
          <mxGeometry x="85" y="10" width="295" height="110" as="geometry" />
        </mxCell>
        <mxCell id="gmT84jEC6gGRV9Um8jLX-22" style="edgeStyle=orthogonalEdgeStyle;rounded=0;orthogonalLoop=1;jettySize=auto;html=1;exitX=0;exitY=0.5;exitDx=0;exitDy=0;entryX=0;entryY=0.5;entryDx=0;entryDy=0;" edge="1" parent="1" source="gmT84jEC6gGRV9Um8jLX-11" target="gmT84jEC6gGRV9Um8jLX-10">
          <mxGeometry relative="1" as="geometry">
            <Array as="points">
              <mxPoint x="180" y="795" />
              <mxPoint x="180" y="535" />
            </Array>
          </mxGeometry>
        </mxCell>
        <mxCell id="gmT84jEC6gGRV9Um8jLX-31" value="" style="endArrow=none;html=1;rounded=0;exitX=1;exitY=0.5;exitDx=0;exitDy=0;strokeWidth=2;" edge="1" parent="1" source="gmT84jEC6gGRV9Um8jLX-10">
          <mxGeometry width="50" height="50" relative="1" as="geometry">
            <mxPoint x="520" y="550" as="sourcePoint" />
            <mxPoint x="570" y="540" as="targetPoint" />
          </mxGeometry>
        </mxCell>
        <mxCell id="gmT84jEC6gGRV9Um8jLX-39" value="F" style="edgeLabel;html=1;align=center;verticalAlign=middle;resizable=0;points=[];" vertex="1" connectable="0" parent="gmT84jEC6gGRV9Um8jLX-31">
          <mxGeometry x="0.2432" relative="1" as="geometry">
            <mxPoint x="-45" y="-10" as="offset" />
          </mxGeometry>
        </mxCell>
        <mxCell id="gmT84jEC6gGRV9Um8jLX-33" value="" style="endArrow=none;html=1;rounded=0;entryX=0.25;entryY=1;entryDx=0;entryDy=0;strokeWidth=2;" edge="1" parent="1" target="gmT84jEC6gGRV9Um8jLX-5">
          <mxGeometry width="50" height="50" relative="1" as="geometry">
            <mxPoint x="566" y="540" as="sourcePoint" />
            <mxPoint x="600" y="470" as="targetPoint" />
          </mxGeometry>
        </mxCell>
        <mxCell id="gmT84jEC6gGRV9Um8jLX-34" value="" style="endArrow=doubleBlock;html=1;rounded=0;dashed=1;endFill=1;strokeWidth=2;" edge="1" parent="1">
          <mxGeometry width="50" height="50" relative="1" as="geometry">
            <mxPoint x="570" y="540" as="sourcePoint" />
            <mxPoint x="690" y="540" as="targetPoint" />
          </mxGeometry>
        </mxCell>
        <mxCell id="gmT84jEC6gGRV9Um8jLX-35" value="" style="endArrow=classic;html=1;rounded=0;entryX=0.5;entryY=0;entryDx=0;entryDy=0;strokeWidth=2;dashed=1;startArrow=ERmandOne;startFill=0;" edge="1" parent="1" target="gmT84jEC6gGRV9Um8jLX-1">
          <mxGeometry width="50" height="50" relative="1" as="geometry">
            <mxPoint x="415" y="50" as="sourcePoint" />
            <mxPoint x="430" y="10" as="targetPoint" />
          </mxGeometry>
        </mxCell>
        <mxCell id="gmT84jEC6gGRV9Um8jLX-38" value="" style="group" vertex="1" connectable="0" parent="1">
          <mxGeometry x="160" y="460" width="480" height="420" as="geometry" />
        </mxCell>
        <mxCell id="gmT84jEC6gGRV9Um8jLX-36" value="" style="rounded=0;whiteSpace=wrap;html=1;fillColor=#008a00;fontColor=#ffffff;strokeColor=#005700;opacity=20;" vertex="1" parent="gmT84jEC6gGRV9Um8jLX-38">
          <mxGeometry y="134.04" width="470" height="285.96" as="geometry" />
        </mxCell>
        <mxCell id="gmT84jEC6gGRV9Um8jLX-37" value="" style="rounded=0;whiteSpace=wrap;html=1;fillColor=#008a00;fontColor=#ffffff;strokeColor=#005700;opacity=20;" vertex="1" parent="gmT84jEC6gGRV9Um8jLX-38">
          <mxGeometry width="360" height="134.04255319148936" as="geometry" />
        </mxCell>
      </root>
    </mxGraphModel>
  </diagram>
</mxfile>
